<svg xmlns="http://www.w3.org/2000/svg" width="16" height="16" viewBox="0 0 24 24">
  <g id="_bus" data-name=" bus" transform="translate(-236 -188)">
    <g id="bus">
      <path id="Vector" d="M0,0H24V24H0Z" transform="translate(236 188)" fill="none" opacity="0"/>
      <path id="Vector-2" data-name="Vector" d="M0,.5V5.9A3.109,3.109,0,0,0,3.1,9h9.8A3.109,3.109,0,0,0,16,5.9V.5a.5.5,0,0,0-.5-.5H.5A.5.5,0,0,0,0,.5ZM4.88,5.38A1.217,1.217,0,0,1,4,5.75a1.942,1.942,0,0,1-.24-.02,1.128,1.128,0,0,1-.24-.08,1.39,1.39,0,0,1-.21-.11,1,1,0,0,1-.19-.16,1.231,1.231,0,0,1,0-1.76,1,1,0,0,1,.19-.16,1.39,1.39,0,0,1,.21-.11,1.128,1.128,0,0,1,.24-.08,1.261,1.261,0,0,1,1.12.35,1.231,1.231,0,0,1,0,1.76Zm8,0a1,1,0,0,1-.19.16,1.39,1.39,0,0,1-.21.11,1.267,1.267,0,0,1-.23.08,2.286,2.286,0,0,1-.25.02,1.942,1.942,0,0,1-.24-.02,1.128,1.128,0,0,1-.24-.08,1.39,1.39,0,0,1-.21-.11,1,1,0,0,1-.19-.16,1.231,1.231,0,0,1,0-1.76,1,1,0,0,1,.19-.16,1.39,1.39,0,0,1,.21-.11,1.128,1.128,0,0,1,.24-.08,1.345,1.345,0,0,1,.49,0,1.267,1.267,0,0,1,.23.08,1.39,1.39,0,0,1,.21.11,1,1,0,0,1,.19.16,1.231,1.231,0,0,1,0,1.76Z" transform="translate(240 201)" fill="#292d32"/>
      <path id="Vector-3" data-name="Vector" d="M12.9,0H3.1A3.1,3.1,0,0,0,0,3.1V5.5A.5.5,0,0,0,.5,6h15a.5.5,0,0,0,.5-.5V3.1A3.1,3.1,0,0,0,12.9,0ZM10.5,3.75h-5a.75.75,0,0,1,0-1.5h5a.75.75,0,0,1,0,1.5Z" transform="translate(240 190)" fill="#292d32"/>
      <path id="Vector-4" data-name="Vector" d="M15.5,3H.5A.5.5,0,0,1,0,2.5V.5A.5.5,0,0,1,.5,0h15a.5.5,0,0,1,.5.5v2A.5.5,0,0,1,15.5,3Z" transform="translate(240 197)" fill="#292d32"/>
    </g>
  </g>
</svg>
